<mxfile host="app.diagrams.net" agent="Mozilla/5.0 (Windows NT 10.0; Win64; x64) AppleWebKit/537.36 (KHTML, like Gecko) Chrome/133.0.0.0 Safari/537.36" version="26.0.11">
  <diagram name="PÃ¡gina-1" id="iUcgVtEXMzRxBOgDlG7H">
    <mxGraphModel dx="1441" dy="804" grid="1" gridSize="10" guides="1" tooltips="1" connect="1" arrows="1" fold="1" page="1" pageScale="1" pageWidth="850" pageHeight="1100" math="0" shadow="0">
      <root>
        <mxCell id="0" />
        <mxCell id="1" parent="0" />
        <mxCell id="WFEBvDyZ01ctAkbv_m_T-6" value="" style="edgeStyle=orthogonalEdgeStyle;rounded=0;orthogonalLoop=1;jettySize=auto;html=1;" parent="1" source="MEIXtipWwkdmPV2Wa9fO-1" target="WFEBvDyZ01ctAkbv_m_T-5" edge="1">
          <mxGeometry relative="1" as="geometry" />
        </mxCell>
        <mxCell id="MEIXtipWwkdmPV2Wa9fO-1" value="Inicio" style="ellipse;whiteSpace=wrap;html=1;aspect=fixed;" parent="1" vertex="1">
          <mxGeometry x="160" y="40" width="80" height="80" as="geometry" />
        </mxCell>
        <mxCell id="WFEBvDyZ01ctAkbv_m_T-8" value="" style="edgeStyle=orthogonalEdgeStyle;rounded=0;orthogonalLoop=1;jettySize=auto;html=1;" parent="1" target="WFEBvDyZ01ctAkbv_m_T-7" edge="1">
          <mxGeometry relative="1" as="geometry">
            <mxPoint x="190" y="487" as="sourcePoint" />
          </mxGeometry>
        </mxCell>
        <mxCell id="WFEBvDyZ01ctAkbv_m_T-20" value="" style="edgeStyle=orthogonalEdgeStyle;rounded=0;orthogonalLoop=1;jettySize=auto;html=1;" parent="1" source="WFEBvDyZ01ctAkbv_m_T-5" target="WFEBvDyZ01ctAkbv_m_T-19" edge="1">
          <mxGeometry relative="1" as="geometry" />
        </mxCell>
        <mxCell id="WUyy9eq5CJhvRx1wRgJ9-2" value="" style="edgeStyle=orthogonalEdgeStyle;rounded=0;orthogonalLoop=1;jettySize=auto;html=1;" edge="1" parent="1" source="WFEBvDyZ01ctAkbv_m_T-5" target="WUyy9eq5CJhvRx1wRgJ9-1">
          <mxGeometry relative="1" as="geometry" />
        </mxCell>
        <mxCell id="WFEBvDyZ01ctAkbv_m_T-5" value="Inicio de seccion" style="rhombus;whiteSpace=wrap;html=1;" parent="1" vertex="1">
          <mxGeometry x="160" y="220" width="80" height="80" as="geometry" />
        </mxCell>
        <mxCell id="WFEBvDyZ01ctAkbv_m_T-10" value="" style="edgeStyle=orthogonalEdgeStyle;rounded=0;orthogonalLoop=1;jettySize=auto;html=1;" parent="1" source="WFEBvDyZ01ctAkbv_m_T-7" target="WFEBvDyZ01ctAkbv_m_T-9" edge="1">
          <mxGeometry relative="1" as="geometry" />
        </mxCell>
        <mxCell id="WFEBvDyZ01ctAkbv_m_T-7" value="Ve vestido&amp;nbsp;" style="whiteSpace=wrap;html=1;" parent="1" vertex="1">
          <mxGeometry x="130" y="538.62" width="120" height="60" as="geometry" />
        </mxCell>
        <mxCell id="WFEBvDyZ01ctAkbv_m_T-12" value="" style="edgeStyle=orthogonalEdgeStyle;rounded=0;orthogonalLoop=1;jettySize=auto;html=1;" parent="1" source="WFEBvDyZ01ctAkbv_m_T-9" target="WFEBvDyZ01ctAkbv_m_T-11" edge="1">
          <mxGeometry relative="1" as="geometry" />
        </mxCell>
        <mxCell id="WFEBvDyZ01ctAkbv_m_T-9" value="Le gusta uno" style="whiteSpace=wrap;html=1;" parent="1" vertex="1">
          <mxGeometry x="130" y="638.62" width="120" height="60" as="geometry" />
        </mxCell>
        <mxCell id="WFEBvDyZ01ctAkbv_m_T-14" value="" style="edgeStyle=orthogonalEdgeStyle;rounded=0;orthogonalLoop=1;jettySize=auto;html=1;" parent="1" source="WFEBvDyZ01ctAkbv_m_T-11" target="WFEBvDyZ01ctAkbv_m_T-13" edge="1">
          <mxGeometry relative="1" as="geometry" />
        </mxCell>
        <mxCell id="WFEBvDyZ01ctAkbv_m_T-11" value="Selecciona el vestido" style="whiteSpace=wrap;html=1;" parent="1" vertex="1">
          <mxGeometry x="130" y="728.62" width="120" height="60" as="geometry" />
        </mxCell>
        <mxCell id="WFEBvDyZ01ctAkbv_m_T-16" value="" style="edgeStyle=orthogonalEdgeStyle;rounded=0;orthogonalLoop=1;jettySize=auto;html=1;entryX=0.5;entryY=1;entryDx=0;entryDy=0;" parent="1" source="WFEBvDyZ01ctAkbv_m_T-13" target="WFEBvDyZ01ctAkbv_m_T-19" edge="1">
          <mxGeometry relative="1" as="geometry">
            <mxPoint x="359.96000000000004" y="489.9999999999999" as="targetPoint" />
          </mxGeometry>
        </mxCell>
        <mxCell id="WFEBvDyZ01ctAkbv_m_T-23" value="" style="edgeStyle=orthogonalEdgeStyle;rounded=0;orthogonalLoop=1;jettySize=auto;html=1;" parent="1" source="WFEBvDyZ01ctAkbv_m_T-13" target="WFEBvDyZ01ctAkbv_m_T-22" edge="1">
          <mxGeometry relative="1" as="geometry" />
        </mxCell>
        <mxCell id="WFEBvDyZ01ctAkbv_m_T-13" value="&lt;font style=&quot;font-size: 10px;&quot;&gt;Tiene cuenta?&lt;/font&gt;" style="rhombus;whiteSpace=wrap;html=1;" parent="1" vertex="1">
          <mxGeometry x="150" y="818.62" width="80" height="80" as="geometry" />
        </mxCell>
        <mxCell id="WFEBvDyZ01ctAkbv_m_T-21" style="edgeStyle=orthogonalEdgeStyle;rounded=0;orthogonalLoop=1;jettySize=auto;html=1;entryX=0.5;entryY=0;entryDx=0;entryDy=0;exitX=0.5;exitY=0;exitDx=0;exitDy=0;" parent="1" source="WFEBvDyZ01ctAkbv_m_T-19" target="WFEBvDyZ01ctAkbv_m_T-5" edge="1">
          <mxGeometry relative="1" as="geometry">
            <mxPoint x="360" y="220" as="sourcePoint" />
            <Array as="points">
              <mxPoint x="360" y="200" />
              <mxPoint x="200" y="200" />
            </Array>
          </mxGeometry>
        </mxCell>
        <mxCell id="WFEBvDyZ01ctAkbv_m_T-19" value="Llena registro&amp;nbsp;" style="whiteSpace=wrap;html=1;" parent="1" vertex="1">
          <mxGeometry x="300" y="230" width="120" height="60" as="geometry" />
        </mxCell>
        <mxCell id="WFEBvDyZ01ctAkbv_m_T-31" value="" style="edgeStyle=orthogonalEdgeStyle;rounded=0;orthogonalLoop=1;jettySize=auto;html=1;" parent="1" source="WFEBvDyZ01ctAkbv_m_T-22" target="WFEBvDyZ01ctAkbv_m_T-30" edge="1">
          <mxGeometry relative="1" as="geometry" />
        </mxCell>
        <mxCell id="WFEBvDyZ01ctAkbv_m_T-42" value="" style="edgeStyle=orthogonalEdgeStyle;rounded=0;orthogonalLoop=1;jettySize=auto;html=1;" parent="1" source="WFEBvDyZ01ctAkbv_m_T-22" target="WFEBvDyZ01ctAkbv_m_T-41" edge="1">
          <mxGeometry relative="1" as="geometry" />
        </mxCell>
        <mxCell id="WFEBvDyZ01ctAkbv_m_T-22" value="&lt;font style=&quot;font-size: 10px;&quot;&gt;Hay disponibilidad&amp;nbsp;&lt;/font&gt;" style="rhombus;whiteSpace=wrap;html=1;" parent="1" vertex="1">
          <mxGeometry x="150" y="928.62" width="80" height="80" as="geometry" />
        </mxCell>
        <mxCell id="WFEBvDyZ01ctAkbv_m_T-25" value="no" style="text;html=1;align=center;verticalAlign=middle;resizable=0;points=[];autosize=1;strokeColor=none;fillColor=none;" parent="1" vertex="1">
          <mxGeometry x="250" y="228" width="40" height="30" as="geometry" />
        </mxCell>
        <mxCell id="WFEBvDyZ01ctAkbv_m_T-27" value="no" style="text;html=1;align=center;verticalAlign=middle;resizable=0;points=[];autosize=1;strokeColor=none;fillColor=none;" parent="1" vertex="1">
          <mxGeometry x="280" y="826.62" width="40" height="30" as="geometry" />
        </mxCell>
        <mxCell id="WFEBvDyZ01ctAkbv_m_T-28" value="si" style="text;html=1;align=center;verticalAlign=middle;resizable=0;points=[];autosize=1;strokeColor=none;fillColor=none;" parent="1" vertex="1">
          <mxGeometry x="195" y="896.62" width="30" height="30" as="geometry" />
        </mxCell>
        <mxCell id="WUyy9eq5CJhvRx1wRgJ9-21" value="" style="edgeStyle=orthogonalEdgeStyle;rounded=0;orthogonalLoop=1;jettySize=auto;html=1;exitX=0;exitY=0.5;exitDx=0;exitDy=0;" edge="1" parent="1" source="WFEBvDyZ01ctAkbv_m_T-30" target="WUyy9eq5CJhvRx1wRgJ9-20">
          <mxGeometry relative="1" as="geometry" />
        </mxCell>
        <mxCell id="WUyy9eq5CJhvRx1wRgJ9-23" value="" style="edgeStyle=orthogonalEdgeStyle;rounded=0;orthogonalLoop=1;jettySize=auto;html=1;" edge="1" parent="1" source="WFEBvDyZ01ctAkbv_m_T-30" target="WUyy9eq5CJhvRx1wRgJ9-22">
          <mxGeometry relative="1" as="geometry" />
        </mxCell>
        <mxCell id="WFEBvDyZ01ctAkbv_m_T-30" value="Selecciona fechas" style="whiteSpace=wrap;html=1;" parent="1" vertex="1">
          <mxGeometry x="130" y="1140" width="120" height="60" as="geometry" />
        </mxCell>
        <mxCell id="WFEBvDyZ01ctAkbv_m_T-32" value="si" style="text;html=1;align=center;verticalAlign=middle;resizable=0;points=[];autosize=1;strokeColor=none;fillColor=none;" parent="1" vertex="1">
          <mxGeometry x="185" y="1006.62" width="30" height="30" as="geometry" />
        </mxCell>
        <mxCell id="WFEBvDyZ01ctAkbv_m_T-36" value="" style="edgeStyle=orthogonalEdgeStyle;rounded=0;orthogonalLoop=1;jettySize=auto;html=1;" parent="1" source="WFEBvDyZ01ctAkbv_m_T-33" target="WFEBvDyZ01ctAkbv_m_T-35" edge="1">
          <mxGeometry relative="1" as="geometry" />
        </mxCell>
        <mxCell id="WFEBvDyZ01ctAkbv_m_T-38" value="" style="edgeStyle=orthogonalEdgeStyle;rounded=0;orthogonalLoop=1;jettySize=auto;html=1;" parent="1" source="WFEBvDyZ01ctAkbv_m_T-33" target="WFEBvDyZ01ctAkbv_m_T-37" edge="1">
          <mxGeometry relative="1" as="geometry" />
        </mxCell>
        <mxCell id="WFEBvDyZ01ctAkbv_m_T-33" value="&lt;font style=&quot;font-size: 10px;&quot;&gt;Disponibilidad de fecha&lt;/font&gt;" style="rhombus;whiteSpace=wrap;html=1;" parent="1" vertex="1">
          <mxGeometry x="140" y="1340" width="80" height="80" as="geometry" />
        </mxCell>
        <mxCell id="WUyy9eq5CJhvRx1wRgJ9-26" style="edgeStyle=orthogonalEdgeStyle;rounded=0;orthogonalLoop=1;jettySize=auto;html=1;" edge="1" parent="1" source="WFEBvDyZ01ctAkbv_m_T-35">
          <mxGeometry relative="1" as="geometry">
            <mxPoint x="190" y="1110" as="targetPoint" />
            <Array as="points">
              <mxPoint x="520" y="1380" />
              <mxPoint x="520" y="1110" />
            </Array>
          </mxGeometry>
        </mxCell>
        <mxCell id="WFEBvDyZ01ctAkbv_m_T-35" value="Selecciona otra fecha" style="whiteSpace=wrap;html=1;" parent="1" vertex="1">
          <mxGeometry x="320" y="1350" width="120" height="60" as="geometry" />
        </mxCell>
        <mxCell id="WFEBvDyZ01ctAkbv_m_T-45" value="" style="edgeStyle=orthogonalEdgeStyle;rounded=0;orthogonalLoop=1;jettySize=auto;html=1;" parent="1" source="WFEBvDyZ01ctAkbv_m_T-37" target="WFEBvDyZ01ctAkbv_m_T-44" edge="1">
          <mxGeometry relative="1" as="geometry" />
        </mxCell>
        <mxCell id="WFEBvDyZ01ctAkbv_m_T-37" value="Procede con el pago" style="whiteSpace=wrap;html=1;" parent="1" vertex="1">
          <mxGeometry x="120" y="1448" width="120" height="60" as="geometry" />
        </mxCell>
        <mxCell id="WFEBvDyZ01ctAkbv_m_T-39" value="no" style="text;html=1;align=center;verticalAlign=middle;resizable=0;points=[];autosize=1;strokeColor=none;fillColor=none;" parent="1" vertex="1">
          <mxGeometry x="250" y="1350" width="40" height="30" as="geometry" />
        </mxCell>
        <mxCell id="WFEBvDyZ01ctAkbv_m_T-40" value="si" style="text;html=1;align=center;verticalAlign=middle;resizable=0;points=[];autosize=1;strokeColor=none;fillColor=none;" parent="1" vertex="1">
          <mxGeometry x="185" y="1520" width="30" height="30" as="geometry" />
        </mxCell>
        <mxCell id="WUyy9eq5CJhvRx1wRgJ9-10" value="" style="edgeStyle=orthogonalEdgeStyle;rounded=0;orthogonalLoop=1;jettySize=auto;html=1;" edge="1" parent="1" source="WFEBvDyZ01ctAkbv_m_T-41" target="WUyy9eq5CJhvRx1wRgJ9-9">
          <mxGeometry relative="1" as="geometry" />
        </mxCell>
        <mxCell id="WFEBvDyZ01ctAkbv_m_T-41" value="Muestra otros vestidos" style="whiteSpace=wrap;html=1;" parent="1" vertex="1">
          <mxGeometry x="290" y="938.62" width="120" height="60" as="geometry" />
        </mxCell>
        <mxCell id="WFEBvDyZ01ctAkbv_m_T-43" value="no" style="text;html=1;align=center;verticalAlign=middle;resizable=0;points=[];autosize=1;strokeColor=none;fillColor=none;" parent="1" vertex="1">
          <mxGeometry x="230" y="946.62" width="40" height="30" as="geometry" />
        </mxCell>
        <mxCell id="WFEBvDyZ01ctAkbv_m_T-47" value="" style="edgeStyle=orthogonalEdgeStyle;rounded=0;orthogonalLoop=1;jettySize=auto;html=1;" parent="1" source="WFEBvDyZ01ctAkbv_m_T-44" target="WFEBvDyZ01ctAkbv_m_T-46" edge="1">
          <mxGeometry relative="1" as="geometry" />
        </mxCell>
        <mxCell id="WUyy9eq5CJhvRx1wRgJ9-28" value="" style="edgeStyle=orthogonalEdgeStyle;rounded=0;orthogonalLoop=1;jettySize=auto;html=1;exitX=0;exitY=0.5;exitDx=0;exitDy=0;" edge="1" parent="1" source="WFEBvDyZ01ctAkbv_m_T-44" target="WUyy9eq5CJhvRx1wRgJ9-27">
          <mxGeometry relative="1" as="geometry">
            <mxPoint x="130" y="1600" as="sourcePoint" />
            <Array as="points">
              <mxPoint x="100" y="1610" />
            </Array>
          </mxGeometry>
        </mxCell>
        <mxCell id="WFEBvDyZ01ctAkbv_m_T-44" value="Tipo de fecha" style="rhombus;whiteSpace=wrap;html=1;" parent="1" vertex="1">
          <mxGeometry x="140" y="1570" width="80" height="80" as="geometry" />
        </mxCell>
        <mxCell id="WUyy9eq5CJhvRx1wRgJ9-32" style="edgeStyle=orthogonalEdgeStyle;rounded=0;orthogonalLoop=1;jettySize=auto;html=1;entryX=1;entryY=0.5;entryDx=0;entryDy=0;" edge="1" parent="1" source="WFEBvDyZ01ctAkbv_m_T-46" target="WFEBvDyZ01ctAkbv_m_T-52">
          <mxGeometry relative="1" as="geometry">
            <Array as="points">
              <mxPoint x="330" y="1810" />
            </Array>
          </mxGeometry>
        </mxCell>
        <mxCell id="WFEBvDyZ01ctAkbv_m_T-46" value="Se cobra la renta&amp;nbsp;&amp;nbsp;" style="whiteSpace=wrap;html=1;" parent="1" vertex="1">
          <mxGeometry x="265" y="1660" width="120" height="60" as="geometry" />
        </mxCell>
        <mxCell id="WFEBvDyZ01ctAkbv_m_T-57" value="" style="edgeStyle=orthogonalEdgeStyle;rounded=0;orthogonalLoop=1;jettySize=auto;html=1;" parent="1" source="WFEBvDyZ01ctAkbv_m_T-52" target="WFEBvDyZ01ctAkbv_m_T-56" edge="1">
          <mxGeometry relative="1" as="geometry" />
        </mxCell>
        <mxCell id="WFEBvDyZ01ctAkbv_m_T-52" value="se agenda cita" style="whiteSpace=wrap;html=1;" parent="1" vertex="1">
          <mxGeometry x="120" y="1780" width="120" height="60" as="geometry" />
        </mxCell>
        <mxCell id="WFEBvDyZ01ctAkbv_m_T-61" value="" style="edgeStyle=orthogonalEdgeStyle;rounded=0;orthogonalLoop=1;jettySize=auto;html=1;" parent="1" source="WFEBvDyZ01ctAkbv_m_T-56" target="WFEBvDyZ01ctAkbv_m_T-60" edge="1">
          <mxGeometry relative="1" as="geometry" />
        </mxCell>
        <mxCell id="WFEBvDyZ01ctAkbv_m_T-56" value="Dia de la cita" style="whiteSpace=wrap;html=1;" parent="1" vertex="1">
          <mxGeometry x="120" y="1890" width="120" height="60" as="geometry" />
        </mxCell>
        <mxCell id="WFEBvDyZ01ctAkbv_m_T-63" value="" style="edgeStyle=orthogonalEdgeStyle;rounded=0;orthogonalLoop=1;jettySize=auto;html=1;" parent="1" source="WFEBvDyZ01ctAkbv_m_T-60" target="WFEBvDyZ01ctAkbv_m_T-62" edge="1">
          <mxGeometry relative="1" as="geometry" />
        </mxCell>
        <mxCell id="WFEBvDyZ01ctAkbv_m_T-70" value="" style="edgeStyle=orthogonalEdgeStyle;rounded=0;orthogonalLoop=1;jettySize=auto;html=1;" parent="1" source="WFEBvDyZ01ctAkbv_m_T-60" target="WFEBvDyZ01ctAkbv_m_T-69" edge="1">
          <mxGeometry relative="1" as="geometry" />
        </mxCell>
        <mxCell id="WFEBvDyZ01ctAkbv_m_T-60" value="Asiste?" style="rhombus;whiteSpace=wrap;html=1;" parent="1" vertex="1">
          <mxGeometry x="140" y="1998" width="80" height="80" as="geometry" />
        </mxCell>
        <mxCell id="WFEBvDyZ01ctAkbv_m_T-68" value="" style="edgeStyle=orthogonalEdgeStyle;rounded=0;orthogonalLoop=1;jettySize=auto;html=1;" parent="1" source="WFEBvDyZ01ctAkbv_m_T-62" target="WFEBvDyZ01ctAkbv_m_T-67" edge="1">
          <mxGeometry relative="1" as="geometry" />
        </mxCell>
        <mxCell id="WFEBvDyZ01ctAkbv_m_T-62" value="Se retiene el dinero" style="whiteSpace=wrap;html=1;" parent="1" vertex="1">
          <mxGeometry x="290" y="2008" width="120" height="60" as="geometry" />
        </mxCell>
        <mxCell id="WFEBvDyZ01ctAkbv_m_T-67" value="se guarda como credito en la app" style="whiteSpace=wrap;html=1;" parent="1" vertex="1">
          <mxGeometry x="460" y="2008" width="120" height="60" as="geometry" />
        </mxCell>
        <mxCell id="WFEBvDyZ01ctAkbv_m_T-72" value="" style="edgeStyle=orthogonalEdgeStyle;rounded=0;orthogonalLoop=1;jettySize=auto;html=1;" parent="1" source="WFEBvDyZ01ctAkbv_m_T-69" target="WFEBvDyZ01ctAkbv_m_T-71" edge="1">
          <mxGeometry relative="1" as="geometry" />
        </mxCell>
        <mxCell id="WFEBvDyZ01ctAkbv_m_T-69" value="Se prueba el vestido" style="whiteSpace=wrap;html=1;" parent="1" vertex="1">
          <mxGeometry x="120" y="2120" width="120" height="60" as="geometry" />
        </mxCell>
        <mxCell id="WFEBvDyZ01ctAkbv_m_T-74" value="" style="edgeStyle=orthogonalEdgeStyle;rounded=0;orthogonalLoop=1;jettySize=auto;html=1;" parent="1" source="WFEBvDyZ01ctAkbv_m_T-71" target="WFEBvDyZ01ctAkbv_m_T-73" edge="1">
          <mxGeometry relative="1" as="geometry" />
        </mxCell>
        <mxCell id="WFEBvDyZ01ctAkbv_m_T-76" value="" style="edgeStyle=orthogonalEdgeStyle;rounded=0;orthogonalLoop=1;jettySize=auto;html=1;" parent="1" source="WFEBvDyZ01ctAkbv_m_T-71" target="WFEBvDyZ01ctAkbv_m_T-75" edge="1">
          <mxGeometry relative="1" as="geometry" />
        </mxCell>
        <mxCell id="WFEBvDyZ01ctAkbv_m_T-71" value="Le gusta&amp;nbsp;" style="rhombus;whiteSpace=wrap;html=1;" parent="1" vertex="1">
          <mxGeometry x="140" y="2240" width="80" height="80" as="geometry" />
        </mxCell>
        <mxCell id="WUyy9eq5CJhvRx1wRgJ9-34" value="" style="edgeStyle=orthogonalEdgeStyle;rounded=0;orthogonalLoop=1;jettySize=auto;html=1;" edge="1" parent="1" source="WFEBvDyZ01ctAkbv_m_T-73" target="WUyy9eq5CJhvRx1wRgJ9-33">
          <mxGeometry relative="1" as="geometry" />
        </mxCell>
        <mxCell id="WFEBvDyZ01ctAkbv_m_T-73" value="Paga la renta" style="whiteSpace=wrap;html=1;" parent="1" vertex="1">
          <mxGeometry x="120" y="2380" width="120" height="60" as="geometry" />
        </mxCell>
        <mxCell id="WFEBvDyZ01ctAkbv_m_T-206" value="" style="edgeStyle=orthogonalEdgeStyle;rounded=0;orthogonalLoop=1;jettySize=auto;html=1;" parent="1" source="WFEBvDyZ01ctAkbv_m_T-75" target="WFEBvDyZ01ctAkbv_m_T-205" edge="1">
          <mxGeometry relative="1" as="geometry" />
        </mxCell>
        <mxCell id="WFEBvDyZ01ctAkbv_m_T-75" value="la boutique modifica la orden con otro vestido que le guste" style="whiteSpace=wrap;html=1;" parent="1" vertex="1">
          <mxGeometry x="280" y="2250" width="120" height="60" as="geometry" />
        </mxCell>
        <mxCell id="WFEBvDyZ01ctAkbv_m_T-196" value="Diagrama de procesos del cliente final&amp;nbsp;" style="text;html=1;align=center;verticalAlign=middle;resizable=0;points=[];autosize=1;strokeColor=none;fillColor=none;" parent="1" vertex="1">
          <mxGeometry x="450" y="30" width="230" height="30" as="geometry" />
        </mxCell>
        <mxCell id="WFEBvDyZ01ctAkbv_m_T-199" value="no" style="text;html=1;align=center;verticalAlign=middle;resizable=0;points=[];autosize=1;strokeColor=none;fillColor=none;" parent="1" vertex="1">
          <mxGeometry x="225" y="1998" width="40" height="30" as="geometry" />
        </mxCell>
        <mxCell id="WFEBvDyZ01ctAkbv_m_T-200" value="si" style="text;html=1;align=center;verticalAlign=middle;resizable=0;points=[];autosize=1;strokeColor=none;fillColor=none;" parent="1" vertex="1">
          <mxGeometry x="190" y="2078" width="30" height="30" as="geometry" />
        </mxCell>
        <mxCell id="WFEBvDyZ01ctAkbv_m_T-201" value="no" style="text;html=1;align=center;verticalAlign=middle;resizable=0;points=[];autosize=1;strokeColor=none;fillColor=none;" parent="1" vertex="1">
          <mxGeometry x="220" y="2278" width="40" height="30" as="geometry" />
        </mxCell>
        <mxCell id="WFEBvDyZ01ctAkbv_m_T-202" value="si" style="text;html=1;align=center;verticalAlign=middle;resizable=0;points=[];autosize=1;strokeColor=none;fillColor=none;" parent="1" vertex="1">
          <mxGeometry x="180" y="2340" width="30" height="30" as="geometry" />
        </mxCell>
        <mxCell id="WFEBvDyZ01ctAkbv_m_T-208" value="" style="edgeStyle=orthogonalEdgeStyle;rounded=0;orthogonalLoop=1;jettySize=auto;html=1;" parent="1" source="WFEBvDyZ01ctAkbv_m_T-205" target="WFEBvDyZ01ctAkbv_m_T-207" edge="1">
          <mxGeometry relative="1" as="geometry">
            <mxPoint x="630" y="2310" as="targetPoint" />
          </mxGeometry>
        </mxCell>
        <mxCell id="WFEBvDyZ01ctAkbv_m_T-210" value="" style="edgeStyle=orthogonalEdgeStyle;rounded=0;orthogonalLoop=1;jettySize=auto;html=1;" parent="1" source="WFEBvDyZ01ctAkbv_m_T-205" target="WFEBvDyZ01ctAkbv_m_T-209" edge="1">
          <mxGeometry relative="1" as="geometry" />
        </mxCell>
        <mxCell id="WFEBvDyZ01ctAkbv_m_T-205" value="Elije otro" style="rhombus;whiteSpace=wrap;html=1;" parent="1" vertex="1">
          <mxGeometry x="460" y="2240" width="80" height="80" as="geometry" />
        </mxCell>
        <mxCell id="WFEBvDyZ01ctAkbv_m_T-207" value="se mantiene el dinero en credito Ã³ se da otra alternativa" style="whiteSpace=wrap;html=1;" parent="1" vertex="1">
          <mxGeometry x="630" y="2240" width="120" height="60" as="geometry" />
        </mxCell>
        <mxCell id="WFEBvDyZ01ctAkbv_m_T-209" value="Se realiza el cobro de la renta en la tienda" style="whiteSpace=wrap;html=1;" parent="1" vertex="1">
          <mxGeometry x="470" y="2390" width="120" height="60" as="geometry" />
        </mxCell>
        <mxCell id="WFEBvDyZ01ctAkbv_m_T-211" value="no" style="text;html=1;align=center;verticalAlign=middle;resizable=0;points=[];autosize=1;strokeColor=none;fillColor=none;" parent="1" vertex="1">
          <mxGeometry x="570" y="2278" width="40" height="30" as="geometry" />
        </mxCell>
        <mxCell id="WFEBvDyZ01ctAkbv_m_T-212" value="si" style="text;html=1;align=center;verticalAlign=middle;resizable=0;points=[];autosize=1;strokeColor=none;fillColor=none;" parent="1" vertex="1">
          <mxGeometry x="525" y="2348" width="30" height="30" as="geometry" />
        </mxCell>
        <mxCell id="WUyy9eq5CJhvRx1wRgJ9-5" value="" style="edgeStyle=orthogonalEdgeStyle;rounded=0;orthogonalLoop=1;jettySize=auto;html=1;" edge="1" parent="1" source="WUyy9eq5CJhvRx1wRgJ9-1" target="WUyy9eq5CJhvRx1wRgJ9-4">
          <mxGeometry relative="1" as="geometry" />
        </mxCell>
        <mxCell id="WUyy9eq5CJhvRx1wRgJ9-1" value="Pide permiso de ubicaciÃ³n" style="whiteSpace=wrap;html=1;" vertex="1" parent="1">
          <mxGeometry x="140" y="340" width="120" height="60" as="geometry" />
        </mxCell>
        <mxCell id="WUyy9eq5CJhvRx1wRgJ9-4" value="Muestra boutique mas cercana&amp;nbsp;" style="whiteSpace=wrap;html=1;" vertex="1" parent="1">
          <mxGeometry x="140" y="430" width="120" height="60" as="geometry" />
        </mxCell>
        <mxCell id="WUyy9eq5CJhvRx1wRgJ9-13" value="" style="edgeStyle=orthogonalEdgeStyle;rounded=0;orthogonalLoop=1;jettySize=auto;html=1;" edge="1" parent="1" source="WUyy9eq5CJhvRx1wRgJ9-9" target="WUyy9eq5CJhvRx1wRgJ9-12">
          <mxGeometry relative="1" as="geometry" />
        </mxCell>
        <mxCell id="WUyy9eq5CJhvRx1wRgJ9-19" style="edgeStyle=orthogonalEdgeStyle;rounded=0;orthogonalLoop=1;jettySize=auto;html=1;" edge="1" parent="1" source="WUyy9eq5CJhvRx1wRgJ9-9" target="WFEBvDyZ01ctAkbv_m_T-11">
          <mxGeometry relative="1" as="geometry">
            <mxPoint x="260" y="750" as="targetPoint" />
            <Array as="points">
              <mxPoint x="490" y="760" />
              <mxPoint x="260" y="760" />
              <mxPoint x="260" y="759" />
            </Array>
          </mxGeometry>
        </mxCell>
        <mxCell id="WUyy9eq5CJhvRx1wRgJ9-9" value="&lt;font style=&quot;font-size: 10px;&quot;&gt;Le gusta algÃºn vestido&lt;/font&gt;" style="rhombus;whiteSpace=wrap;html=1;" vertex="1" parent="1">
          <mxGeometry x="450" y="928.62" width="80" height="80" as="geometry" />
        </mxCell>
        <mxCell id="WUyy9eq5CJhvRx1wRgJ9-18" style="edgeStyle=orthogonalEdgeStyle;rounded=0;orthogonalLoop=1;jettySize=auto;html=1;entryX=1;entryY=0.5;entryDx=0;entryDy=0;exitX=0.907;exitY=0.029;exitDx=0;exitDy=0;exitPerimeter=0;" edge="1" parent="1" source="WUyy9eq5CJhvRx1wRgJ9-12" target="WFEBvDyZ01ctAkbv_m_T-7">
          <mxGeometry relative="1" as="geometry">
            <Array as="points">
              <mxPoint x="689" y="939" />
              <mxPoint x="640" y="939" />
              <mxPoint x="640" y="569" />
            </Array>
          </mxGeometry>
        </mxCell>
        <mxCell id="WUyy9eq5CJhvRx1wRgJ9-12" value="Le muestra mas boutique&amp;nbsp;" style="whiteSpace=wrap;html=1;" vertex="1" parent="1">
          <mxGeometry x="580" y="938.62" width="120" height="60" as="geometry" />
        </mxCell>
        <mxCell id="WUyy9eq5CJhvRx1wRgJ9-16" value="si" style="text;html=1;align=center;verticalAlign=middle;resizable=0;points=[];autosize=1;strokeColor=none;fillColor=none;" vertex="1" parent="1">
          <mxGeometry x="495" y="828" width="30" height="30" as="geometry" />
        </mxCell>
        <mxCell id="WUyy9eq5CJhvRx1wRgJ9-17" value="no" style="text;html=1;align=center;verticalAlign=middle;resizable=0;points=[];autosize=1;strokeColor=none;fillColor=none;" vertex="1" parent="1">
          <mxGeometry x="530" y="948" width="40" height="30" as="geometry" />
        </mxCell>
        <mxCell id="WUyy9eq5CJhvRx1wRgJ9-24" style="edgeStyle=orthogonalEdgeStyle;rounded=0;orthogonalLoop=1;jettySize=auto;html=1;entryX=0.5;entryY=0;entryDx=0;entryDy=0;" edge="1" parent="1" source="WUyy9eq5CJhvRx1wRgJ9-20" target="WFEBvDyZ01ctAkbv_m_T-33">
          <mxGeometry relative="1" as="geometry" />
        </mxCell>
        <mxCell id="WUyy9eq5CJhvRx1wRgJ9-20" value="Inmediata&amp;nbsp;&lt;div&gt;1-7 dÃ­as&amp;nbsp;&lt;/div&gt;" style="whiteSpace=wrap;html=1;" vertex="1" parent="1">
          <mxGeometry x="10" y="1240" width="120" height="60" as="geometry" />
        </mxCell>
        <mxCell id="WUyy9eq5CJhvRx1wRgJ9-25" style="edgeStyle=orthogonalEdgeStyle;rounded=0;orthogonalLoop=1;jettySize=auto;html=1;entryX=0.5;entryY=0;entryDx=0;entryDy=0;" edge="1" parent="1" source="WUyy9eq5CJhvRx1wRgJ9-22" target="WFEBvDyZ01ctAkbv_m_T-33">
          <mxGeometry relative="1" as="geometry">
            <mxPoint x="180" y="1500" as="targetPoint" />
          </mxGeometry>
        </mxCell>
        <mxCell id="WUyy9eq5CJhvRx1wRgJ9-22" value="Futura&lt;div&gt;8 en adelante&amp;nbsp;&lt;/div&gt;" style="whiteSpace=wrap;html=1;" vertex="1" parent="1">
          <mxGeometry x="320" y="1240" width="120" height="60" as="geometry" />
        </mxCell>
        <mxCell id="WUyy9eq5CJhvRx1wRgJ9-31" style="edgeStyle=orthogonalEdgeStyle;rounded=0;orthogonalLoop=1;jettySize=auto;html=1;entryX=0;entryY=0.5;entryDx=0;entryDy=0;" edge="1" parent="1" source="WUyy9eq5CJhvRx1wRgJ9-27" target="WFEBvDyZ01ctAkbv_m_T-52">
          <mxGeometry relative="1" as="geometry" />
        </mxCell>
        <mxCell id="WUyy9eq5CJhvRx1wRgJ9-27" value="Se retiene la renta durante 7 dÃ­as&amp;nbsp;" style="whiteSpace=wrap;html=1;" vertex="1" parent="1">
          <mxGeometry x="40" y="1660" width="120" height="60" as="geometry" />
        </mxCell>
        <mxCell id="WUyy9eq5CJhvRx1wRgJ9-29" value="Inmediata&amp;nbsp;" style="text;html=1;align=center;verticalAlign=middle;resizable=0;points=[];autosize=1;strokeColor=none;fillColor=none;" vertex="1" parent="1">
          <mxGeometry x="30" y="1608" width="80" height="30" as="geometry" />
        </mxCell>
        <mxCell id="WUyy9eq5CJhvRx1wRgJ9-30" value="Futura&amp;nbsp;" style="text;html=1;align=center;verticalAlign=middle;resizable=0;points=[];autosize=1;strokeColor=none;fillColor=none;" vertex="1" parent="1">
          <mxGeometry x="320" y="1608" width="60" height="30" as="geometry" />
        </mxCell>
        <mxCell id="WUyy9eq5CJhvRx1wRgJ9-38" value="" style="edgeStyle=orthogonalEdgeStyle;rounded=0;orthogonalLoop=1;jettySize=auto;html=1;" edge="1" parent="1" source="WUyy9eq5CJhvRx1wRgJ9-33" target="WUyy9eq5CJhvRx1wRgJ9-37">
          <mxGeometry relative="1" as="geometry" />
        </mxCell>
        <mxCell id="WUyy9eq5CJhvRx1wRgJ9-33" value="Paga la garantÃ­a" style="whiteSpace=wrap;html=1;" vertex="1" parent="1">
          <mxGeometry x="120" y="2480" width="120" height="60" as="geometry" />
        </mxCell>
        <mxCell id="WUyy9eq5CJhvRx1wRgJ9-37" value="" style="shape=waypoint;sketch=0;size=6;pointerEvents=1;points=[];fillColor=default;resizable=0;rotatable=0;perimeter=centerPerimeter;snapToPoint=1;perimeterSpacing=2;strokeWidth=15;" vertex="1" parent="1">
          <mxGeometry x="170" y="2650" width="20" height="20" as="geometry" />
        </mxCell>
      </root>
    </mxGraphModel>
  </diagram>
</mxfile>
